<svg id="gutensite-logo-footer-credit" viewBox="0 0 77 51" version="1.1" xmlns="http://www.w3.org/2000/svg" xmlns:xlink="http://www.w3.org/1999/xlink">
    <!-- Generator: Sketch 51.3 (57544) - http://www.bohemiancoding.com/sketch -->
    <title>gutensite-logo-footer-credit</title>
    <desc>Created with Sketch.</desc>
    <defs></defs>
    <g id="Page-1" stroke="none" stroke-width="1" fill="none" fill-rule="evenodd">
        <path d="M3.429,50.552 C1.512,50.552 0,49.211 0,47.276 C0,45.341 1.494,44 3.492,44 C4.356,44 4.833,44.189 5.328,44.45 L5.328,45.971 C4.707,45.629 4.176,45.494 3.609,45.494 C2.466,45.494 1.665,46.214 1.665,47.303 C1.665,48.455 2.484,49.112 3.429,49.112 C3.789,49.112 4.149,49.04 4.428,48.815 L4.428,46.754 L6.057,46.754 L6.057,49.553 C5.589,50.066 4.599,50.552 3.429,50.552 Z M12.8327141,50.552 C11.3027141,50.552 10.0697141,49.607 10.0697141,47.789 L10.0697141,44.126 L11.6897141,44.126 L11.6897141,47.87 C11.6897141,48.725 12.2297141,49.058 12.8327141,49.058 C13.4447141,49.058 13.9757141,48.725 13.9757141,47.87 L13.9757141,44.126 L15.5957141,44.126 L15.5957141,47.789 C15.5957141,49.607 14.3627141,50.552 12.8327141,50.552 Z M21.3454282,50.426 L21.3454282,45.548 L19.4554282,45.548 L19.4554282,44.126 L24.8644282,44.126 L24.8644282,45.548 L22.9654282,45.548 L22.9654282,50.426 L21.3454282,50.426 Z M28.8051423,50.426 L28.8051423,44.126 L33.5931423,44.126 L33.5931423,45.548 L30.4251423,45.548 L30.4251423,46.403 L32.9451423,46.403 L32.9451423,47.771 L30.4251423,47.771 L30.4251423,49.004 L33.6651423,49.004 L33.6651423,50.426 L28.8051423,50.426 Z M37.6688564,50.426 L37.6688564,44.126 L39.0548564,44.126 L41.8088564,47.591 L41.8088564,44.126 L43.3928564,44.126 L43.3928564,50.426 L42.0518564,50.426 L39.2618564,46.943 L39.2618564,50.426 L37.6688564,50.426 Z M49.9075705,50.552 C49.0165705,50.552 48.1615705,50.354 47.4685705,49.877 L47.4685705,48.221 C47.9905705,48.689 49.0255705,49.085 49.8445705,49.085 C50.3035705,49.085 50.8075705,48.977 50.8075705,48.59 C50.8075705,48.185 50.3305705,48.113 49.5925705,47.888 C48.5395705,47.564 47.4685705,47.24 47.4685705,45.89 C47.4685705,44.648 48.4675705,44 49.9435705,44 C50.8435705,44 51.5635705,44.252 52.0765705,44.522 L52.0765705,46.079 C51.5635705,45.764 50.7175705,45.467 49.9615705,45.467 C49.3495705,45.467 49.1335705,45.629 49.1335705,45.881 C49.1335705,46.196 49.7185705,46.25 50.5465705,46.52 C51.5635705,46.853 52.4815705,47.339 52.4815705,48.527 C52.4815705,49.787 51.3925705,50.552 49.9075705,50.552 Z M56.5302846,50.426 L56.5302846,44.126 L58.1502846,44.126 L58.1502846,50.426 L56.5302846,50.426 Z M64.0169987,50.426 L64.0169987,45.548 L62.1269987,45.548 L62.1269987,44.126 L67.5359987,44.126 L67.5359987,45.548 L65.6369987,45.548 L65.6369987,50.426 L64.0169987,50.426 Z M71.4767128,50.426 L71.4767128,44.126 L76.2647128,44.126 L76.2647128,45.548 L73.0967128,45.548 L73.0967128,46.403 L75.6167128,46.403 L75.6167128,47.771 L73.0967128,47.771 L73.0967128,49.004 L76.3367128,49.004 L76.3367128,50.426 L71.4767128,50.426 Z" id="GUTENSITE"></path>
        <path d="M44.584,31.223 C46.843,29.458 48.605,26.496 48.605,26.496 L54.292,22.702 L51.375,16.452 C51.375,16.452 55.165,16.25 57,20.202 L47.617,25.367 L34.085,25.367 L34.085,18.094 L21,18.094 C21.206,11.32 27.648,9.536 27.917,9.465 L27.892,13.289 C23.129,15.166 23.988,21.487 23.988,21.487 L46.69,21.487 C46.02,8.415 34.1,6.234 34.1,6.234 L34.1,18.14 L41.074,18.14 C41.046,2.208 30.949,1 30.949,1 L30.949,25.367 L22.425,25.367 C22.425,25.367 22.496,26.465 23.202,28.159 L23.978,28.3 C23.978,28.3 24.895,30.588 25.812,31.223 L44.584,31.223 Z" id="ship" ></path>
    </g>
</svg>