<svg viewBox="0 0 254 161" version="1.1" xmlns="http://www.w3.org/2000/svg" xmlns:xlink="http://www.w3.org/1999/xlink">
    <defs></defs>
    <g id="CandidatesList2" stroke="none" stroke-width="1" fill="none" fill-rule="evenodd">
        <path d="M-16,-12 L263,-12 L263,176 L-16,176 L-16,-12 Z M253,13.173913 C252.350721,14.147831 249.915963,17.0695409 245.695652,21.9391304 C242.449259,25.5101628 240.826087,28.1883969 240.826087,29.973913 C240.826087,31.5971096 241.434777,32.8956473 242.652174,33.8695652 C243.869571,34.8434831 245.69564,35.7362278 248.130435,36.5478261 C245.53332,38.3333423 243.747831,39.5507214 242.773913,40.2 C240.988397,41.4985572 240.095652,42.797095 240.095652,44.0956522 C238.147816,45.3942094 236.76812,46.6115885 235.956522,47.7478261 C233.034768,51.8058174 231.573913,57.2434442 231.573913,64.0608696 C231.573913,65.0347875 231.046382,65.8463736 229.991304,66.4956522 C228.936227,67.1449308 227.921744,67.7941997 226.947826,68.4434783 C227.597105,69.7420355 228.692746,71.5681042 230.234783,73.9217391 C231.776819,76.2753741 232.547826,78.4260772 232.547826,80.373913 C232.547826,82.1594292 229.058006,87.6782146 222.078261,96.9304348 C215.098516,106.182655 211.608696,111.944916 211.608696,114.217391 C211.608696,115.515949 212.988392,118.3565 215.747826,122.73913 C220.455096,130.205834 224.188392,136.373889 226.947826,141.243478 L226.947826,147.086957 C225.649269,147.898555 224.43189,148.628982 223.295652,149.278261 C221.185497,149.278261 216.88409,144.489903 210.391304,134.913043 C206.820272,129.556495 203.330452,125.823199 199.921739,123.713043 C197.324625,125.823199 195.052184,126.878261 193.104348,126.878261 C192.455069,126.878261 191.156531,126.634785 189.208696,126.147826 C187.26086,125.660867 185.47537,125.417391 183.852174,125.417391 C180.93042,125.417391 177.278283,126.391295 172.895652,128.33913 C173.220291,130.286966 173.463767,131.626083 173.626087,132.356522 C173.788407,133.08696 174.356517,134.020284 175.330435,135.156522 L155.608696,132.965217 C151.713024,132.965217 147.086983,134.669548 141.730435,138.078261 C135.075329,142.298572 131.747826,147.330406 131.747826,153.173913 C131.747826,154.63479 132.153619,156.582597 132.965217,159.017391 C131.991299,159.50435 131.098555,159.747826 130.286957,159.747826 C126.228965,159.747826 122.008718,155.892792 117.626087,148.182609 C113.243456,140.472425 109.266685,136.617391 105.695652,136.617391 C104.072456,136.617391 102.692759,137.347819 101.556522,138.808696 C100.420284,140.269573 99.4463809,141 98.6347826,141 C96.8492664,141 94.0087151,138.402925 90.1130435,133.208696 C85.7304129,127.527508 82.9710202,124.443481 81.8347826,123.956522 C80.698545,123.469563 79.6434831,123.226087 78.6695652,123.226087 C78.0202866,123.226087 76.6405903,123.713039 74.5304348,124.686957 C72.4202793,125.660874 70.1478383,126.147826 67.7130435,126.147826 C66.4144863,126.147826 65.440583,126.066667 64.7913043,125.904348 C57.8115593,124.93043 50.2638087,122.00872 42.1478261,117.13913 C38.901433,115.191295 33.8695993,114.217391 27.0521739,114.217391 C26.2405757,108.698523 23.7246588,104.884069 19.5043478,102.773913 L11.7130435,98.8782609 C9.2782487,91.2492372 7.4927593,85.486976 6.35652174,81.5913043 C2.78548939,69.7419697 1,62.9246466 1,61.1391304 C3.43479478,52.6985085 5.62607722,43.8927995 7.57391304,34.7217391 C9.52174887,25.5506788 10.4956522,17.8811903 10.4956522,11.7130435 C11.956529,12.6869614 13.1333289,13.3768096 14.026087,13.7826087 C14.918845,14.1884078 16.5014379,14.7159388 18.773913,15.3652174 C19.4231917,13.7420209 19.8289847,12.2000073 19.9913043,10.7391304 C29.2435245,12.362327 38.5361852,13.8231819 47.8695652,15.1217391 C57.2029452,16.4202963 65.1970682,17.313041 71.8521739,17.8 C76.7217635,17.8 83.8231417,17.9623172 93.1565217,18.2869565 C102.489902,18.6115958 107.886949,18.773913 109.347826,18.773913 C114.542055,18.773913 119.086937,18.4898579 122.982609,17.9217391 C126.87828,17.3536203 129.79999,16.0956619 131.747826,14.1478261 C135.156539,17.5565388 139.255049,19.3826075 144.043478,19.626087 C148.831908,19.8695664 152.524625,19.9913043 155.121739,19.9913043 C153.660862,21.1275419 152.240587,22.3043417 150.86087,23.5217391 C149.481153,24.7391365 148.223194,25.9159363 147.086957,27.0521739 C149.034792,27.7014525 150.33333,28.1884042 150.982609,28.5130435 C151.631887,28.8376828 152.199998,29.1623172 152.686957,29.4869565 C152.849276,29.4869565 154.310131,28.4318946 157.069565,26.3217391 C159.828999,24.2115837 161.614489,23.318839 162.426087,23.6434783 C165.023201,26.2405927 166.808691,27.5391304 167.782609,27.5391304 C168.107248,27.5391304 168.878255,26.8492823 170.095652,25.4695652 C171.31305,24.0898482 172.976801,23.4 175.086957,23.4 C175.573915,24.0492786 175.979709,24.5362303 176.304348,24.8608696 C177.765225,25.8347875 179.79419,26.565215 182.391304,27.0521739 L177.521739,29.4869565 C182.229009,31.597112 185.475353,34.0724496 187.26087,36.9130435 C189.046386,39.7536374 189.93913,42.9594024 189.93913,46.5304348 L189.93913,49.6956522 C189.614491,51.3188487 189.452174,52.4550692 189.452174,53.1043478 C190.426092,53.7536264 191.318837,54.0782609 192.130435,54.0782609 C196.837705,54.0782609 200.489842,51.562344 203.086957,46.5304348 C203.898555,44.9072383 204.791299,42.3913214 205.765217,38.9826087 C206.901455,38.820289 208.565206,38.6579718 210.756522,38.4956522 C212.947837,38.3333325 215.260857,35.330464 217.695652,29.4869565 C219.156529,25.9159242 222.646349,23.2376901 228.165217,21.4521739 C233.684086,19.6666577 236.849271,17.2318995 237.66087,14.1478261 C237.011591,13.1739082 236.686957,11.6318946 236.686957,9.52173913 C236.686957,7.89854261 237.011591,5.54494296 237.66087,2.46086957 C239.446386,1.48695165 240.988399,1 242.286957,1 C242.773915,1 243.342026,1.73042748 243.991304,3.19130435 C246.10146,7.4116153 249.104328,10.7391183 253,13.173913 Z M175.330435,30.7043478 L168.026087,34.1130435 L168.026087,48.2347826 C168.675366,50.0202988 169,51.1565193 169,51.6434783 C169,52.1304372 170.298538,53.3478163 172.895652,55.2956522 C173.220291,52.6985377 173.382609,51.1565242 173.382609,50.6695652 C173.382609,48.884049 173.057974,47.1797183 172.408696,45.5565217 C171.759417,43.9333252 171.434783,42.7159461 171.434783,41.9043478 C171.434783,40.6057906 171.637679,39.3072529 172.043478,38.0086957 C172.449277,36.7101384 173.544919,34.2753802 175.330435,30.7043478 Z" id="Combined-Shape" fill="#FFFFFF"></path>
    </g>
</svg>